<svg xmlns="http://www.w3.org/2000/svg" style="display: none;">
  <!-- 警告图标 -->
  <symbol id="icon-warning" viewBox="0 0 24 24">
    <path fill="#f0ad4e" d="M12 2L1 21h22L12 2zm0 3.5L19.5 19h-15L12 5.5z"/>
    <path fill="#f0ad4e" d="M11 10v6h2v-6h-2zm0 8v2h2v-2h-2z"/>
  </symbol>
  
  <!-- 勾选图标 -->
  <symbol id="icon-check" viewBox="0 0 24 24">
    <path fill="#5cb85c" d="M9 16.17L4.83 12l-1.42 1.41L9 19 21 7l-1.41-1.41z"/>
  </symbol>
  
  <!-- 错误图标 -->
  <symbol id="icon-error" viewBox="0 0 24 24">
    <path fill="#d9534f" d="M12 2C6.48 2 2 6.48 2 12s4.48 10 10 10 10-4.48 10-10S17.52 2 12 2zm1 15h-2v-2h2v2zm0-4h-2V7h2v6z"/>
  </symbol>
  
  <!-- 提示图标 -->
  <symbol id="icon-tip" viewBox="0 0 24 24">
    <path fill="#5bc0de" d="M12 2C6.48 2 2 6.48 2 12s4.48 10 10 10 10-4.48 10-10S17.52 2 12 2zm1 17h-2v-2h2v2zm2.07-7.75l-.9.92C13.45 12.9 13 13.5 13 15h-2v-.5c0-1.1.45-2.1 1.17-2.83l1.24-1.26c.37-.36.59-.86.59-1.41 0-1.1-.9-2-2-2s-2 .9-2 2H8c0-2.21 1.79-4 4-4s4 1.79 4 4c0 .88-.36 1.68-.93 2.25z"/>
  </symbol>
  
  <!-- 注意图标 -->
  <symbol id="icon-note" viewBox="0 0 24 24">
    <path fill="#f0ad4e" d="M1 21h22L12 2 1 21zm12-3h-2v-2h2v2zm0-4h-2v-4h2v4z"/>
  </symbol>
</svg>
